inDegrees=no
num_controls=7
num_derivatives=13
num_iterations=102
num_multipliers=7
num_parameters=0
num_slacks=7
num_states=26
objective=0.450070
objective_accelerations=0.053788
objective_balance=0.001185
objective_effort=0.040996
objective_height=0.348480
objective_ligament=0.005621
solver_duration=1198.821781
status=Solve_Succeeded
success=true
DataType=double
version=3
OpenSimVersion=4.5
endheader
time	/jointset/ground_pelvis/pelvis_tilt/value	/jointset/ground_pelvis/pelvis_tx/value	/jointset/ground_pelvis/pelvis_ty/value	/jointset/hip_r/hip_flexion_r/value	/jointset/hip_r/hip_adduction_r/value	/jointset/hip_r/hip_rotation_r/value	/jointset/back/lumbar_extension/value	/jointset/patellofemoral_r/patellar_flexion_r/value	/jointset/knee_r/knee_flexion_r/value	/jointset/knee_r/knee_adduction_r/value	/jointset/knee_r/knee_rotation_r/value	/jointset/ankle_r/ankle_angle_r/value	/jointset/subtalar_r/subtalar_angle_r/value	/jointset/ground_pelvis/pelvis_tilt/speed	/jointset/ground_pelvis/pelvis_tx/speed	/jointset/ground_pelvis/pelvis_ty/speed	/jointset/hip_r/hip_flexion_r/speed	/jointset/hip_r/hip_adduction_r/speed	/jointset/hip_r/hip_rotation_r/speed	/jointset/back/lumbar_extension/speed	/jointset/patellofemoral_r/patellar_flexion_r/speed	/jointset/knee_r/knee_flexion_r/speed	/jointset/knee_r/knee_adduction_r/speed	/jointset/knee_r/knee_rotation_r/speed	/jointset/ankle_r/ankle_angle_r/speed	/jointset/subtalar_r/subtalar_angle_r/speed	/forceset/tau_hip_flexion_r	/forceset/tau_hip_adduction_r	/forceset/tau_hip_rotation_r	/forceset/tau_knee_flexion_r	/forceset/tau_ankle_angle_r	/forceset/tau_subtalar_angle_r	/forceset/tau_lumbar_extension	lambda_cid13_p0	lambda_cid14_p0	lambda_cid14_p1	lambda_cid14_p2	lambda_cid14_p3	lambda_cid14_p4	lambda_cid14_p5	/jointset/ground_pelvis/pelvis_tilt/accel	/jointset/ground_pelvis/pelvis_tx/accel	/jointset/ground_pelvis/pelvis_ty/accel	/jointset/hip_r/hip_flexion_r/accel	/jointset/hip_r/hip_adduction_r/accel	/jointset/hip_r/hip_rotation_r/accel	/jointset/back/lumbar_extension/accel	/jointset/patellofemoral_r/patellar_flexion_r/accel	/jointset/knee_r/knee_flexion_r/accel	/jointset/knee_r/knee_adduction_r/accel	/jointset/knee_r/knee_rotation_r/accel	/jointset/ankle_r/ankle_angle_r/accel	/jointset/subtalar_r/subtalar_angle_r/accel	gamma_cid13_p0	gamma_cid14_p0	gamma_cid14_p1	gamma_cid14_p2	gamma_cid14_p3	gamma_cid14_p4	gamma_cid14_p5
0.5	-0.1530407323088376	0.0123345610921557	0.7872110345023636	0.9694644222868072	-0.2193751151197883	-0.1284704980815684	-0.6551851813777764	1.022394884404068	1.022394884403736	-0.08139148912381765	0.1744862381913864	0.3043177725404426	0.1481470145601941	-0.4027976165581886	-0.2204172099545005	-0.5826602714234215	2.075043734390641	-0.04754850893092252	0.216155604870048	-0.7287334578565693	2.10549190673026	2.105491906730283	-0.4204493923997635	-0.002293183033817442	0.5335201394867382	0.1443400742942103	-0.208027782345261	0.00787686338056208	0.01757344199734283	-0.3072215511444981	0.01895452204740309	0.001768109560574039	0.2482168385105405	-5.455792015042047	-36.36834614908356	-5.590621026459333	1.302582375995304	-6.2919186845647	-639.994485621554	62.91804546940189	0.5247028509601094	0.709341342079345	-0.4660338707139122	-1.477118133685627	-0.2502194325835881	-0.4261972506092938	1.982942246493708	-1.475389470870977	-1.475389470870978	0.7034415528904234	0.06886599094829832	-0.7300402744043875	-0.5505717218782841	-3.189093519408024e-08	1.768133933400292e-07	2.120876119692782e-06	8.600880851241561e-07	-2.940409427548454e-07	-1.934345742478959e-07	1.616267569755814e-06
0.51	-0.157041579276356	0.01016598375814111	0.7813625338345483	0.9901378268933761	-0.2198637551939611	-0.1263287212750112	-0.6623730315745098	1.043372990836663	1.043372990836454	-0.08555771134095451	0.1744674346657962	0.3096151206075697	0.1495610799098121	-0.3973058677917481	-0.2132861935048638	-0.5869034852147376	2.059360163608908	-0.05020260269458315	0.2126115865037141	-0.7087720560956385	2.089879226874327	2.089879226874366	-0.412348805501553	-0.001601135359950451	0.5258397159591119	0.1383586000085463	-0.2148107233643703	0.008718739221447381	0.01790980169538592	-0.3131622828304855	0.01845345120890797	0.001968604402608402	0.2545476764530805	-4.621387250041424	-36.91985670590748	-5.780081091956281	1.538353746036803	-6.174789131701307	-645.8322871713847	63.25317909910411	0.571326855057974	0.7167323607070561	-0.3830467913095041	-1.655499859943524	-0.276248336226256	-0.2567833391480092	2.012417949602694	-1.641727590473942	-1.641727590471597	0.930563447272821	0.04958019258401739	-0.8035566400430776	-0.6386634358824198	-2.375045057744148e-08	1.911843272527229e-07	2.088684956765847e-06	9.197590075797798e-07	-3.036368536395715e-07	-1.703675390358767e-07	1.633085919544022e-06
0.52	-0.1609855255630716	0.008069066701483272	0.7754756846972263	1.010646091130223	-0.2203795850033532	-0.1242100404940624	-0.6693593319918906	1.064187466401233	1.064187466401111	-0.08962948845133971	0.1744515928242535	0.314832361789806	0.1509119848857786	-0.3914174804024817	-0.206085154483148	-0.5903299653248099	2.042015660446101	-0.05298645597695864	0.2115363997572659	-0.6884235019863366	2.07276573311762	2.072765733117676	-0.4015603710438517	-0.00170084620695406	0.5174987625074358	0.1317079995639902	-0.2215936643835881	0.009560615062178748	0.01824616139408291	-0.3191030145163882	0.01795238037038764	0.002169099244377926	0.2608785143955314	-3.858813818383396	-37.46727073459159	-5.961096488464001	1.763956599451613	-6.090685171954928	-651.6312950994195	63.60913309864078	0.6040305755249422	0.7233458564953922	-0.3026871344651337	-1.809304609900619	-0.2761713363265861	0.06756907336784489	2.060372716167699	-1.77555225102574	-1.775552251025698	1.241011064788749	-0.08948571322562657	-0.8621462592140869	-0.6843969536568227	-4.556883156348373e-08	1.861743075152714e-07	2.15022100978686e-06	9.098926673526605e-07	-3.217149184439985e-07	-1.287141625142153e-07	1.593933336509831e-06
0.53	-0.1648689065319186	0.006044466055398051	0.7695586109310382	1.030973190012455	-0.2209224730797208	-0.1220976135125868	-0.6761399069134258	1.084822711389686	1.084822711389638	-0.09358883814250764	0.174433294595409	0.3199635099247135	0.1521956506759576	-0.385213498878437	-0.1988265840550612	-0.5929510101284233	2.023166315636706	-0.05547590825130928	0.2105696977134915	-0.6676066692571315	2.053964481946736	2.053964481946762	-0.3907718671794925	-0.001892885546938793	0.5086807458371628	0.1251723043732494	-0.2283091250473417	0.01055553315847243	0.01836082765585447	-0.3250629023714407	0.01746382253759146	0.002329972611231055	0.2671334260484772	-3.167483654739198	-38.01187703939517	-6.155732631089845	1.988193470101543	-6.027907056532348	-657.4111658115423	63.95064978351658	0.6353886515595775	0.7283049961463939	-0.2217678527275552	-1.958392385423756	-0.217806005287005	-0.2357767964193035	2.105060510397703	-1.98021753836444	-1.980217538369098	0.9287109508442489	0.02607194324518391	-0.8992049174143407	-0.6156353214667323	-3.988092289767318e-08	1.930773978269373e-07	2.098469105976252e-06	9.39076845265896e-07	-3.241689217229182e-07	-1.12466137171419e-07	1.589433877043071e-06
0.54	-0.1686888863433604	0.00409268958563001	0.7636193357769304	1.051104666852807	-0.2214867504452845	-0.1200062509422073	-0.6827097691158466	1.105260382668788	1.105260382668826	-0.09745411461433164	0.1744151029706494	0.3250049627836256	0.1534184636102919	-0.3787372489258264	-0.1915203192197119	-0.5947702429087457	2.002891252068704	-0.05726431381754631	0.2073235175429414	-0.646280958163919	2.033250991246068	2.033250991246064	-0.38274572717172	-0.001679525381719337	0.4995597073076758	0.1195374283951401	-0.2350245857111461	0.01155045125468745	0.01847549391824198	-0.3310227902264132	0.01697526470478387	0.002490845977941738	0.2733883377013806	-2.546550976882712	-38.55376949795951	-6.342773369633359	2.203086039407847	-5.99694332196974	-663.174465839653	64.31064394404557	0.6584842612378584	0.7328847379480543	-0.1423247298068862	-2.094448361622069	-0.1359619947038584	-0.3883265519872794	2.162148388968998	-2.158000156982488	-2.158000156982489	0.6885382934715121	-0.008405812184708461	-0.9227506310566712	-0.5042331111305646	-3.760523553216627e-09	2.131609503206057e-07	1.921377335032785e-06	1.01146585175995e-06	-3.093367292714893e-07	-1.243261599414098e-07	1.623274043650914e-06
0.55	-0.172442385630563	0.002214120833661072	0.7576659583013496	1.071025823907927	-0.2220666729026367	-0.1179529341666519	-0.6890647292956431	1.125482152100287	1.125482152100371	-0.1012460394265275	0.1743995577962615	0.3299533984498173	0.1545872375651057	-0.371876662435444	-0.1841937278862557	-0.595761692426343	1.981049559100221	-0.05873599809918451	0.2035410275533916	-0.6247219576418148	2.010859170019503	2.010859170019502	-0.3753740251356233	-0.001447360935563918	0.4900458499498964	0.1141317020464848	-0.2413342526036074	0.01221248136655652	0.01863182430405987	-0.3372223972499749	0.0165324967832807	0.00262107166923231	0.2791966701487809	-1.995461471252127	-39.08602629772397	-6.5390329392047	2.416700916428228	-5.81930277332138	-668.88006052334	64.66881313302756	0.7127695390099072	0.7324415752513644	-0.05604725459978167	-2.272586303405819	-0.1549321399212248	-0.3430561016566509	2.151143906501995	-2.316335049255894	-2.316335049255656	0.8014778845654811	0.03662639436332759	-0.9779768474334952	-0.5711824979561817	1.964651453480677e-08	2.270063184180479e-07	1.793353041454964e-06	1.051259710084937e-06	-3.004874263139886e-07	-1.254056341828704e-07	1.64360640275745e-06
0.5600000000000001	-0.1761246943136293	0.0004087970438680904	0.7517069678922204	1.09071985272557	-0.2226617443018111	-0.1159314114668308	-0.6952044258656843	1.14547269093079	1.14547269093087	-0.1049562488731895	0.1743858540306019	0.3348042408305718	0.1556994662361877	-0.3644991281022567	-0.1768713267845207	-0.5958928296184814	1.95746560457394	-0.06029410218192873	0.2009647023951401	-0.6032282362128977	1.987004871042442	1.987004871042442	-0.366402654064052	-0.001311243635497499	0.4800410502203236	0.1082283716489002	-0.2476439194961595	0.01287451147843796	0.01878815468966204	-0.343422004273569	0.01608972886179354	0.002751297360555036	0.2850050025960996	-1.513582876166501	-39.61696131530285	-6.728378253267569	2.6215826828115	-5.672323310165182	-674.5913593652928	65.04386809840716	0.7618738297985539	0.7320466916039401	0.02973773528492603	-2.442900673181689	-0.1532459549251272	-0.1470935857275847	2.149092570331416	-2.450495707081849	-2.450495707081913	1.008472100566556	-0.02761524140248531	-1.020939105415188	-0.6037539209164108	2.779751911511086e-08	2.333658652400188e-07	1.724209720715917e-06	1.051939390607044e-06	-2.988175907492016e-07	-1.135484501900952e-07	1.64772939286242e-06
